# xmcd
#
# Track frame offsets: 
#        150
#        20617
#        41554
#        66423
#        83009
#        100561
#        121526
#        142521
#        160359
#        177167
#        193879
#
# Disc length: 2798 seconds
#
# Revision: 2
# Processed by: cddbd v1.5.2PL0 Copyright (c) Steve Scherf et al.
# Submitted via: ExactAudioCopy v0.99pb3
#
DISCID=840aec0b
DTITLE=Gladys Knight and The Pips - About Love
DYEAR=1980
DGENRE=Soul
TTITLE0=Landlord
TTITLE1=Taste Of Bitter Love
TTITLE2=Still Such A Thing
TTITLE3=Get The Love
TTITLE4=Add It Up
TTITLE5=Bourgie', Bourgie'
TTITLE6=Friendly Persuasion
TTITLE7=We Need Hearts
TTITLE8=Landlord (Single Version)
TTITLE9=Taste Of Bitter Love (Single Version)
TTITLE10=Bourgie', Bourgie' (Single Version)
EXTD=
EXTT0=
EXTT1=
EXTT2=
EXTT3=
EXTT4=
EXTT5=
EXTT6=
EXTT7=
EXTT8=
EXTT9=
EXTT10=
PLAYORDER=
